# xmcd
#
# Track frame offsets:
# 150
# 12641
# 23828
# 34252
# 45512
# 56838
# 70130
# 80913
# 92392
# 102668
# 113930
# 126483
#
# Disc length: 1884 seconds
#
#
# Revision: 0
# Processed by: cddbd v1.5.2PL0 Copyright (c) Steve Scherf et al.
# Submitted via: FreeRIP 2.943 
#
DISCID=a9075a0c
DTITLE=Brian Coll - The Country Way
DYEAR=1900
DGENRE=National Folk
TTITLE0=Down the Road I Go
TTITLE1=Garden Of Love
TTITLE2=Good  To Have You Home
TTITLE3=Odd Job Dollar Bill Man
TTITLE4=You'll Remember Me
TTITLE5=Daddy Did His Best
TTITLE6=Dear Mamma
TTITLE7=The Bells That Broke My Heart
TTITLE8=Countrified
TTITLE9=Are You Teasing Me
TTITLE10=Love Gets Older
TTITLE11=Two Sides Of Live
EXTD=
EXTT0=
EXTT1=
EXTT2=
EXTT3=
EXTT4=
EXTT5=
EXTT6=
EXTT7=
EXTT8=
EXTT9=
EXTT10=
EXTT11=
PLAYORDER=
